<svg width="113" height="105" viewBox="0 0 112.638 104.169" fill="none" xmlns="http://www.w3.org/2000/svg">
<g id="Group 3">
<g id="Group 1">
<g id="Vector 1">
<path d="M56.1783 22.3354C56.886 22.5687 57.6862 22.8713 58.4459 23.1799C58.8937 23.2656 59.7142 23.4793 60.9279 23.876C62.6803 24.6472 63.744 25.1845 64.8888 25.9656C65.8864 26.6463 67.677 27.8749 69.2595 29.2542C70.8421 30.6335 72.1762 32.1186 73.2558 33.4789C74.3354 34.8392 75.1361 36.0383 75.8078 37.1562C76.4796 38.274 77.0063 39.2801 77.9127 40.741C78.819 42.2019 80.0672 44.0613 81.0178 45.6399C81.9684 47.2185 82.6022 48.4781 83.1577 49.8683C83.7133 51.2585 84.1765 52.7344 84.4982 54.0116C84.8199 55.2888 84.9949 56.3354 85.0678 57.5838C85.1407 58.8322 85.1124 60.2396 84.9558 61.7036C84.7992 63.1676 84.5227 64.6434 83.5939 67.3551C82.6651 70.0668 81.1639 73.9124 80.2971 75.9197C79.3355 78.1463 78.9901 78.711 78.425 79.2623C77.8784 79.7955 76.7704 80.8281 74.2652 82.0162C72.722 82.7481 70.5831 83.5767 68.6885 84.1411C66.7938 84.7056 65.192 84.9973 63.0604 85.1448C60.9288 85.2923 58.3456 85.2957 55.1509 84.9835C51.9561 84.6713 48.2616 84.0621 45.3328 83.3824C42.404 82.7028 40.3046 81.9747 38.5692 81.2082C36.8338 80.4418 35.5028 79.6607 34.08 78.5711C32.6571 77.4815 31.187 76.1246 30.141 75.0462C29.095 73.9678 28.4915 73.1915 27.4861 71.6382C26.4808 70.0849 25.1151 67.8232 23.7081 64.7124C22.3011 61.6015 20.8955 57.7581 20.0991 55.2438C19.3026 52.7295 19.1209 51.5793 19.0867 50.1254C19.0526 48.6714 19.1626 46.9655 19.3832 45.5201C19.6038 44.0747 19.8878 42.911 20.1883 42.145C20.65 40.9681 21.2568 39.8347 22.2772 38.5645C22.7915 37.9244 23.3528 37.3348 26.0122 35.1653C28.6716 32.9958 33.2892 29.3567 36.2099 27.2008C39.1306 25.0449 40.3185 24.3919 41.1503 23.9763C41.9822 23.5607 42.4441 23.3876 43.7044 23.0472C44.9647 22.7069 46.9629 22.2143 48.6368 21.9385C50.3107 21.6627 51.6205 21.6055 52.7644 21.6661C53.9082 21.7268 54.8573 21.9 56.1783 22.3354Z" fill="#FFD700"/>
<path d="M63.6209 27.0256C63.5629 26.7419 63.1338 25.9081 62.2507 25.0425C61.9332 24.7313 61.3446 24.4609 60.2436 23.9544C59.1426 23.4479 57.4994 22.7709 56.1783 22.3354C54.8573 21.9 53.9082 21.7268 52.7644 21.6661C51.6205 21.6055 50.3107 21.6627 48.6368 21.9385C46.9629 22.2143 44.9647 22.7069 43.7044 23.0472C42.4441 23.3876 41.9822 23.5607 41.1503 23.9763C40.3185 24.3919 39.1306 25.0449 36.2099 27.2008C33.2892 29.3567 28.6716 32.9958 26.0122 35.1653C23.3528 37.3348 22.7915 37.9244 22.2772 38.5645C21.2568 39.8347 20.65 40.9681 20.1883 42.145C19.8878 42.911 19.6038 44.0747 19.3832 45.5201C19.1626 46.9655 19.0526 48.6714 19.0867 50.1254C19.1209 51.5793 19.3026 52.7295 20.0991 55.2438C20.8955 57.7581 22.3011 61.6015 23.7081 64.7124C25.1151 67.8232 26.4808 70.0849 27.4861 71.6382C28.4915 73.1915 29.095 73.9678 30.141 75.0462C31.187 76.1246 32.6571 77.4815 34.08 78.5711C35.5028 79.6607 36.8338 80.4418 38.5692 81.2082C40.3046 81.9747 42.404 82.7028 45.3328 83.3824C48.2616 84.0621 51.9561 84.6713 55.1509 84.9835C58.3456 85.2957 60.9288 85.2923 63.0604 85.1448C65.192 84.9973 66.7938 84.7056 68.6885 84.1411C70.5831 83.5767 72.722 82.7481 74.2652 82.0162C76.7704 80.8281 77.8784 79.7955 78.425 79.2623C78.9901 78.711 79.3355 78.1463 80.2971 75.9197C81.1639 73.9124 82.6651 70.0668 83.5939 67.3551C84.5227 64.6434 84.7992 63.1676 84.9558 61.7036C85.1124 60.2396 85.1407 58.8322 85.0678 57.5838C84.9949 56.3354 84.8199 55.2888 84.4982 54.0116C84.1765 52.7344 83.7133 51.2585 83.1577 49.8683C82.6022 48.4781 81.9684 47.2185 81.0178 45.6399C80.0672 44.0613 78.819 42.2019 77.9127 40.741C77.0063 39.2801 76.4796 38.274 75.8078 37.1562C75.1361 36.0383 74.3354 34.8392 73.2558 33.4789C72.1762 32.1186 70.8421 30.6335 69.2595 29.2542C67.677 27.8749 65.8864 26.6463 64.8888 25.9656C63.744 25.1845 62.6803 24.6472 60.9279 23.876C59.3192 23.3502 58.4013 23.146 58.1263 23.1348C57.9847 23.1237 57.8389 23.1014 57.659 23.0785" stroke="black" stroke-width="2" stroke-linecap="round"/>
</g>
<path id="Vector 2" d="M80.9038 45.0163C80.9135 45.0163 80.9231 45.0163 84.2678 42.4701C87.6126 39.924 94.292 34.8317 98.7181 31.1592C103.144 27.4868 105.114 25.3885 106.806 23.282C108.498 21.1755 109.852 19.1244 110.583 18.0011C111.313 16.8778 111.38 16.7445 111.523 16.4645" stroke="black" stroke-width="2" stroke-linecap="round"/>
<path id="Vector 3" d="M84.8951 66.3243C84.8951 66.3613 84.8951 66.3984 84.9232 66.4789C84.9514 66.5593 85.0078 66.682 86.9059 66.8861C88.8041 67.0901 92.5423 67.3718 96.6832 67.9714C100.824 68.571 105.255 69.4799 107.784 70.0391C110.313 70.5982 110.807 70.7799 111.638 71.147" stroke="black" stroke-width="2" stroke-linecap="round"/>
<path id="Vector 4" d="M73.1133 31.4801C73.1133 31.4604 73.2049 31.0827 73.8164 29.2691C74.3072 27.813 75.2814 25.3097 76.6434 21.9538C78.0054 18.598 79.7556 14.4757 81.0024 10.9286C82.2492 7.38148 82.9398 4.53447 83.3079 2.96865C83.676 1.40283 83.7007 1.20447 83.7263 1.00011" stroke="black" stroke-width="2" stroke-linecap="round"/>
<path id="Vector 5" d="M36.8031 27.8881C36.8031 27.8783 36.8031 27.8685 36.5457 27.5949C36.2883 27.3213 35.7736 26.7843 29.9529 22.7599C24.1322 18.7355 13.0211 11.2399 7.20267 7.30327C1.3842 3.36662 1.19499 3.21598 1.00004 3.06077" stroke="black" stroke-width="2" stroke-linecap="round"/>
<path id="Vector 6" d="M21.872 63.3349C21.4338 63.3551 20.9855 63.5968 18.2391 65.5207C17.0835 66.3301 15.4706 67.321 13.3368 69.0519C11.2029 70.7828 8.57574 73.1921 7.11933 74.549C5.66292 75.9058 5.45692 76.1371 5.24467 76.3754" stroke="black" stroke-width="2" stroke-linecap="round"/>
<path id="Vector 7" d="M43.7759 82.8589C43.6765 83.2553 43.2653 84.3545 42.6795 85.8584C42.3328 86.7483 41.7437 88.3883 40.4654 91.292C39.7627 92.8882 38.8304 94.6797 38.2703 95.9214C37.5198 97.7869 37.2723 98.891 37.1945 99.7841C37.168 100.216 37.168 100.604 37.168 101.004" stroke="black" stroke-width="2" stroke-linecap="round"/>
<path id="Vector 8" d="M62.0079 87.8268C62.2123 88.2118 62.9446 89.4261 64.7548 91.8463C66.1651 93.7318 68.6683 96.8807 70.0263 98.6464C71.5457 100.681 72.282 101.554 73.2049 102.499C73.5576 102.849 73.6756 102.934 74.0033 103.169" stroke="black" stroke-width="2" stroke-linecap="round"/>
<path id="Vector 9" d="M37.5135 44.9618H37.4244" stroke="black" stroke-width="2" stroke-linecap="round"/>
<path id="Smile" d="M45.8088 67.3712C45.7362 68.2028 45.9415 70.369 46.8904 72.362C47.5207 73.6859 48.5423 74.4637 49.4525 74.8958C52.5697 76.3757 56.2235 75.2207 57.279 74.511C57.8265 74.1428 58.2255 73.5985 58.5126 72.9968C58.7527 72.395 58.7965 71.635 58.6957 70.7603C58.6614 70.338 58.6614 69.9595 58.6614 69.5695" stroke="black" stroke-width="2" stroke-linecap="round"/>
</g>
<path id="Vector 12" d="M63.4634 45.7582L63.7832 45.8494" stroke="black" stroke-width="2" stroke-linecap="round"/>
</g>
</svg>
